PathFileType	4	(X/Y/Z)	Walk7.trc
DataRate	CameraRate	NumFrames	NumMarkers	Units	OrigDataRate	OrigDataStartFrame	OrigNumFrames
200.000000	200.000000	5	55	mm	200.000000	328	591
Frame#	Times		RFA1		RASI		RUA1		RACR1		RBHD		C7		LFA1		RTH2		RCAR		RTH3		RBack		RElbow		RTB3		RTB1		LElbowM		RMT1		RMT5		RLFC		LTH2		RTB2		RTH4		LTH3		LACR1		RTB4		LElbow		LPSI		RMMAL		LWRU		CLAV		LTH4		RWRR		RPSI		LBHD		LTB1		T10		LLFC		RToe		LFHD		RWRU		LTB3		RTH1		LTB2		LTB4		LMT1		LTH1		LCAL		LMT5		LWRR		LLMAL		RElbowM		RLMAL		LToe		RCAL		LUA1		LCAR
			X1	Y1	Z1	X2	Y2	Z2	X3	Y3	Z3	X4	Y4	Z4	X5	Y5	Z5	X6	Y6	Z6	X7	Y7	Z7	X8	Y8	Z8	X9	Y9	Z9	X10	Y10	Z10	X11	Y11	Z11	X12	Y12	Z12	X13	Y13	Z13	X14	Y14	Z14	X15	Y15	Z15	X16	Y16	Z16	X17	Y17	Z17	X18	Y18	Z18	X19	Y19	Z19	X20	Y20	Z20	X21	Y21	Z21	X22	Y22	Z22	X23	Y23	Z23	X24	Y24	Z24	X25	Y25	Z25	X26	Y26	Z26	X27	Y27	Z27	X28	Y28	Z28	X29	Y29	Z29	X30	Y30	Z30	X31	Y31	Z31	X32	Y32	Z32	X33	Y33	Z33	X34	Y34	Z34	X35	Y35	Z35	X36	Y36	Z36	X37	Y37	Z37	X38	Y38	Z38	X39	Y39	Z39	X40	Y40	Z40	X41	Y41	Z41	X42	Y42	Z42	X43	Y43	Z43	X44	Y44	Z44	X45	Y45	Z45	X46	Y46	Z46	X47	Y47	Z47	X48	Y48	Z48	X49	Y49	Z49	X50	Y50	Z50	X51	Y51	Z51	X52	Y52	Z52	X53	Y53	Z53	X54	Y54	Z54	X55	Y55	Z55

328	1.64	-340.09	921.64	540.75	-236.99	944.74	385.45	-315.17	1187.9	494.19	-262.8	1376.9	416.75	-284.43	1573.2	351.85	-331.6	1438.4	276.02	-289.36	999.83	-58.617	-170.15	672.47	390	-315.87	736.09	540.2	-209.27	559.24	398.84	-404.21	1341.7	368.86	-372.6	1066.1	520.01	-188.2	180.47	290.68	-161.39	369.27	294.27	-414.92	1121.3	52.513	-104.53	37.368	251.08	-132.62	33.321	339.71	-186.63	459.86	381.07	-208.97	647.03	92.086	-178.54	272.78	365.9	-233.5	647.67	420.93	-265.48	546.67	72.27	-298.24	1435.7	98.111	-172.31	276.68	293.95	-392.87	1123.8	-26.342	-432.86	955.99	196	-232.27	95.483	246.16	-289.16	881.3	-54.164	-202.04	1350.9	251.81	-280.23	635	62.901	-288.18	788.63	498.21	-426.84	961.85	301.2	-283.38	1585.5	213.36	-300.34	338.57	144.5	-437.6	1131.4	249.79	-270.9	437.93	85.534	-52.039	35.328	273.74	-99.487	1578.4	237.86	-357.57	790.95	534.36	-465.57	252.24	153.22	-259.31	738.49	435.74	-401.57	322.39	84.909	-384.41	296.57	149.77	-558.08	89.302	196.11	-293.77	731.95	60.354	-665.22	257.21	178.72	-576.31	106.42	117.22	-219.85	906.78	-19.004	-606.92	244.62	129.33	-399.36	1044.7	427.32	-253.31	80.967	334.85	-526.99	67.556	173.21	-306.96	34.243	295.36	-348.03	1249.4	-4.8984	-210.82	855.71	-67.932
329	1.645	-328.65	923.14	540.93	-230.88	946.11	385.62	-306.55	1189.2	494.62	-255.91	1378.5	416.66	-277.83	1575.1	351.62	-325.24	1439.7	276.09	-285.36	1000.8	-58.137	-166.3	672.19	390.23	-302.68	737.86	540.41	-206.69	559.4	399.24	-397.57	1343	369.47	-362.62	1067.2	520.79	-187.94	180.28	290.66	-160.07	369.02	294.67	-410.63	1122.7	52.792	-104.49	37.382	251.11	-132.54	33.353	339.83	-185.16	459.73	381.39	-199.3	650.13	91.654	-177.64	272.56	366.06	-229.39	647.97	421.23	-254.15	549.04	72.005	-292.91	1437.2	98.106	-171.74	276.45	294.35	-388.59	1124.9	-25.657	-426.25	957.52	196.49	-232.2	95.518	246.17	-285.6	882.25	-54.005	-196.03	1352.5	251.62	-270.41	637.09	62.853	-275.66	790.57	498.18	-420.59	963.17	301.62	-276.55	1587.2	213.28	-286.12	340.66	144.19	-430.78	1133.1	250.32	-257.81	440.24	85.297	-52.024	35.218	273.75	-92.816	1579.4	238.04	-344.94	791.95	534.81	-450.84	253.46	153.27	-254.7	739.29	435.78	-387.79	324.2	85.016	-369.92	298.37	149.48	-541.51	90.088	196.09	-285.84	733.61	60.314	-650.86	256.53	179.38	-559.85	107.31	117.19	-216.32	907.7	-18.344	-592.17	245.09	129.74	-390.64	1045.3	428.66	-253.27	81.014	334.8	-510.13	68.441	172.89	-306.99	34.143	295.43	-343.32	1250.9	-4.7282	-207.05	856.23	-67.143
330	1.65	-317.62	924.57	541.36	-225.12	946.99	386.1	-298	1190.7	494.54	-249.34	1380.1	416.65	-271.22	1576.4	351.18	-319.24	1441.3	275.92	-281.77	1001.6	-57.644	-162.41	671.76	390.41	-289.27	739.72	540.52	-203.98	559.44	399.52	-391.1	1344.4	369.96	-353.17	1068.2	521.58	-187.8	180.05	290.69	-159.12	368.8	295.03	-406.1	1124.2	53.331	-104.63	37.109	250.97	-132.61	33.337	339.8	-183.63	459.5	381.62	-189.42	653.34	91.258	-176.57	272.5	366.42	-225.95	648.3	421.35	-243.01	551.29	71.812	-287.38	1438.6	98.186	-171.15	276.2	294.62	-383.96	1126.5	-25.12	-419.71	959.09	196.72	-232.18	95.523	246.2	-282.03	883.33	-53.503	-190.01	1354.1	251.29	-260.73	639.08	62.548	-263.32	792.4	497.92	-415.29	964.82	301.74	-269.83	1589	213.11	-273.28	342.35	144.08	-424.83	1134.1	250.97	-244.63	442.89	85.09	-52.014	35.14	273.72	-86.16	1580.3	238.12	-332.3	793.3	535.01	-435.96	254.6	153.19	-250.01	739.91	436.08	-373.8	326.19	85.041	-355.44	299.95	149.08	-524.38	90.622	195.96	-277.88	735.36	60.112	-636.55	255.4	179.89	-543.17	107.76	117.04	-212.83	908.42	-17.759	-577.31	244.8	130.05	-382.02	1046.4	429.82	-253.1	80.957	334.61	-492.96	69.418	173.01	-306.93	34.043	295.39	-338.79	1252.1	-4.491	-203.72	856.89	-66.521
331	1.655	-306.63	925.7	541.79	-219.07	948.15	386.42	-289.64	1192.1	494.54	-243.04	1381.9	416.67	-264.71	1577.9	350.96	-312.98	1442.7	276.09	-278.14	1002.7	-57.117	-158.66	671.34	390.79	-275.9	741.35	540.48	-201.38	559.67	399.81	-384.6	1345.6	370.37	-343.85	1069.3	522.38	-187.77	179.94	290.7	-158.66	368.5	295.41	-401.32	1125.6	54.143	-104.62	37.285	251.09	-132.62	33.298	339.81	-182.27	459.38	381.88	-179.88	656.4	90.637	-175.87	272.35	366.64	-222.5	648.79	421.68	-231.81	553.63	71.703	-282.24	1439.9	98.351	-170.66	276.04	294.82	-379.38	1127.9	-24.288	-413.75	960.62	197.03	-232.19	95.583	246.25	-278.61	884.63	-53.082	-183.83	1355.4	251.22	-251.11	641.08	62.474	-250.97	794.89	497.65	-409.23	966.51	301.89	-263.06	1590.5	212.92	-260.05	344.18	143.79	-418.73	1135.4	251.37	-232.03	445.39	84.992	-52.01	35.055	273.7	-79.466	1581.1	238.17	-319.68	794.57	535.57	-421.09	255.56	153.09	-245.27	740.7	436.12	-359.66	328.3	85	-340.56	301.46	148.71	-507.13	90.815	195.91	-270.49	736.89	59.638	-621.88	253.74	180.15	-525.88	107.93	117.2	-209.3	909.32	-17.32	-562.37	244.18	130.45	-373.34	1047.2	430.69	-253.19	80.889	334.85	-475.15	70.345	173.06	-306.9	34.077	295.35	-334.27	1253.6	-4.2972	-200.7	857.58	-65.775
332	1.66	-295.41	927.07	542.04	-212.71	949.23	386.67	-281.41	1193.6	494.78	-236.3	1383.4	416.67	-258.16	1579.7	351.1	-306.67	1444	276.35	-274.35	1003.6	-56.557	-155.01	670.91	391.06	-262.35	743.35	540.52	-199.43	559.7	400.17	-378.1	1346.8	370.74	-334.17	1070.5	523.2	-187.65	179.83	290.49	-156.94	368.24	295.46	-396.75	1127.1	55.047	-104.64	37.34	251.18	-132.6	33.283	339.85	-181.33	459.29	382.24	-170.28	659.47	90.102	-175.24	272.26	366.64	-219.07	649.3	421.89	-220.9	555.88	71.38	-276.47	1441.1	98.566	-170.36	275.9	295.04	-375.07	1129.4	-23.846	-407.85	961.98	197.15	-232.2	95.686	246.32	-275.37	885.69	-52.717	-177.67	1356.9	250.91	-241.37	643.17	62.323	-238.83	797.11	497.58	-402.21	967.78	302.3	-256.54	1592.1	212.9	-246.16	346.12	143.32	-412.31	1136.5	251.77	-219.28	448.23	84.699	-51.994	34.987	273.7	-72.947	1582.1	238.31	-307.07	796.07	536.23	-406.06	255.95	153.01	-240.6	741.38	436.29	-345.94	329.86	84.759	-325.54	302.57	148.31	-489.43	90.941	196.15	-262.05	738.89	59.862	-607.12	251.92	180.51	-508.3	107.72	117.62	-205.81	910.06	-16.882	-547.27	243.22	130.89	-364.85	1047.8	431.61	-253.27	80.943	335.12	-457.27	70.822	173.48	-306.92	34.115	295.35	-329.81	1254.9	-3.9505	-197.33	858.32	-65.184
